# xmcd
# Track frame offsets:
# 150
# 14039
# 28059
# 41439
# 56094
# 68778
# 82463
# 94591
# 108656
# 119879
# 134571
# 147729
# 159896
# 176530
# 190680
# 204675
# 219653
# 234202
# 252393
# 262121
# 273585
# 284894
#
# Disc length: 4030 seconds
# Revision: 0
# Processed by: cddbd v1.4PL0 Copyright (c) Steve Scherf et al.
# Submitted via: VisiTrax 2.9.3.171 - For more info visit www.synapsa.com
#
DISCID=690fbc16
DTITLE=Various Artist - Hit The Hay vol. 6 [CD2]
DYEAR=2002
DGENRE=Alternative Country
TTITLE0=Jeffrey Fosket with Doug Fieger - Baby it's you
TTITLE1=The Gravelblankets - You're gonna wish
TTITLE2=Household Saints - Everybod good
TTITLE3=Violet - Days like this
TTITLE4=Jason and The Scorchers - Shop it around
TTITLE5=Greg Hawks and The Tremblers - Fool's paradise
TTITLE6=Mannix - Gasoline
TTITLE7=Brian Jay Cline - Double parked heart
TTITLE8=Bubble - Rainy day
TTITLE9=The Foxy Morons - Left sideways
TTITLE10=J-45 - When I'm gone
TTITLE11=Big In Iowa - Gettin' gone
TTITLE12=American Ambulance - Bitter wine
TTITLE13=Florence Dore - No Nashville
TTITLE14=Fred Haring - There's a song in my head
TTITLE15=Rex Daisy - Greasy
TTITLE16=Mr. Encrypto - I'll get by
TTITLE17=Rip Dizzy - One emotion
TTITLE18=The Faults - Dishonest Jenny
TTITLE19=The Glory Brothers - Number blind
TTITLE20=Rank Strangers - Caffeine, alchohol, sleep
TTITLE21=The Lonesome Trailers - When the word comes around
EXTD=
EXTT0=
EXTT1=
EXTT2=
EXTT3=
EXTT4=
EXTT5=
EXTT6=
EXTT7=
EXTT8=
EXTT9=
EXTT10=
EXTT11=
EXTT12=
EXTT13=
EXTT14=
EXTT15=
EXTT16=
EXTT17=
EXTT18=
EXTT19=
EXTT20=
EXTT21=
PLAYORDER=
